<svg xmlns="http://www.w3.org/2000/svg" xmlns:xlink="http://www.w3.org/1999/xlink" xmlns:lucid="lucid" width="203.83" height="203.83"><g transform="translate(-520.3332893500337 -325.48664176933625)" lucid:page-tab-id="sJSmtG4IsPZv"><path d="M704.17 427.4c0 45.25-36.68 81.92-81.92 81.92s-81.92-36.68-81.92-81.92 36.68-81.9 81.92-81.9 81.92 36.66 81.92 81.9z" fill="#edab38"/><use xlink:href="#a" transform="matrix(1,0,0,1,545.3332893500337,350.48664176933625) translate(38.000000000000014 114.44)"/><defs><path fill="#3a414a" d="M379-223H199v-68c2-99 57-147 156-147 34 0 45-12 45-43 0-54-76-36-125-38-41-2-48 23-45 63L50-501c-5-130 76-183 200-183h120c120 0 210 55 210 175v67c-5 124-77 171-161 166-36-1-43 18-40 53zm0 223H199v-175h180V0" id="b"/><use transform="matrix(0.11999999999999995,0,0,0.11999999999999995,0,0)" xlink:href="#b" id="a"/></defs></g></svg>