<svg xmlns="http://www.w3.org/2000/svg" xmlns:xlink="http://www.w3.org/1999/xlink" xmlns:lucid="lucid" width="204" height="204"><g transform="translate(-746.4671206218532 -322.8199737118684)" lucid:page-tab-id="CsSmen5fpvVv"><path d="M930.47 424.82c0 45.3-36.72 82-82 82-45.3 0-82-36.7-82-82s36.7-82 82-82c45.28 0 82 36.7 82 82z" fill="#083656"/><use xlink:href="#a" transform="matrix(1,0,0,1,788.4671206218532,364.8199737118684) translate(27.50500000000003 94.94999999999992)"/><defs><path fill="#fff" d="M74 0v-168h196v-223H93v-165h357v388h166V0H74zm376-628H270v-160h180v160" id="b"/><use transform="matrix(0.0999999999999999,0,0,0.0999999999999999,0,0)" xlink:href="#b" id="a"/></defs></g></svg>